<svg xmlns="http://www.w3.org/2000/svg" width="1200" height="420" viewBox="0 0 1200 420" role="img" aria-labelledby="title desc">
<title id="title">smorsikda — página personal retro</title>
<desc id="desc">Ventana de computadora de los noventa, nombre dibujado con píxeles y un monitor CRT con la frase Rei mayor que Asuka.</desc>
<rect width="1200" height="420" fill="#b7c9cf"/>
<g fill="#879fa8"><path d="M0 12h1200v2H0zM0 406h1200v2H0z"/><path d="M12 0h2v420h-2zM1186 0h2v420h-2z"/></g>
<rect x="24" y="24" width="1160" height="382" fill="#516979"/>
<path d="M16 16h1160v380H16z" fill="#d8d8ca" stroke="#243346" stroke-width="2"/>
<path d="M19 393V19h1154" fill="none" stroke="#fffef3" stroke-width="4"/>
<path d="M1173 20v373H20" fill="none" stroke="#87928e" stroke-width="4"/>
<rect x="26" y="26" width="1140" height="34" fill="#324766"/>
<g font-family="Courier New, monospace">
<text x="40" y="49" font-size="18" font-weight="bold" fill="#faf7e9">smorsikda.exe — personal homepage</text>
<g fill="#d8d8ca" stroke="#18283b" stroke-width="2"><path d="M1068 32h24v22h-24zM1100 32h24v22h-24zM1132 32h24v22h-24z"/></g>
<path d="M1074 47h12M1106 37h12v11h-12zM1138 37l12 12m0-12-12 12" fill="none" stroke="#243346" stroke-width="2"/>
<rect x="28" y="66" width="1136" height="282" fill="#f4f1e4"/>
<text x="65" y="98" font-size="13" letter-spacing="2" fill="#587177">EST. INGENIERÍA DE SISTEMAS</text>
<g shape-rendering="crispEdges" fill="#a8cbd4" transform="translate(3 4)"><rect x="66" y="122" width="10" height="10"/><rect x="76" y="122" width="10" height="10"/><rect x="86" y="122" width="10" height="10"/><rect x="96" y="122" width="10" height="10"/><rect x="106" y="122" width="10" height="10"/><rect x="66" y="132" width="10" height="10"/><rect x="66" y="142" width="10" height="10"/><rect x="66" y="152" width="10" height="10"/><rect x="76" y="152" width="10" height="10"/><rect x="86" y="152" width="10" height="10"/><rect x="96" y="152" width="10" height="10"/><rect x="106" y="152" width="10" height="10"/><rect x="106" y="162" width="10" height="10"/><rect x="106" y="172" width="10" height="10"/><rect x="66" y="182" width="10" height="10"/><rect x="76" y="182" width="10" height="10"/><rect x="86" y="182" width="10" height="10"/><rect x="96" y="182" width="10" height="10"/><rect x="106" y="182" width="10" height="10"/><rect x="131" y="122" width="10" height="10"/><rect x="171" y="122" width="10" height="10"/><rect x="131" y="132" width="10" height="10"/><rect x="141" y="132" width="10" height="10"/><rect x="161" y="132" width="10" height="10"/><rect x="171" y="132" width="10" height="10"/><rect x="131" y="142" width="10" height="10"/><rect x="151" y="142" width="10" height="10"/><rect x="171" y="142" width="10" height="10"/><rect x="131" y="152" width="10" height="10"/><rect x="151" y="152" width="10" height="10"/><rect x="171" y="152" width="10" height="10"/><rect x="131" y="162" width="10" height="10"/><rect x="171" y="162" width="10" height="10"/><rect x="131" y="172" width="10" height="10"/><rect x="171" y="172" width="10" height="10"/><rect x="131" y="182" width="10" height="10"/><rect x="171" y="182" width="10" height="10"/><rect x="206" y="122" width="10" height="10"/><rect x="216" y="122" width="10" height="10"/><rect x="226" y="122" width="10" height="10"/><rect x="196" y="132" width="10" height="10"/><rect x="236" y="132" width="10" height="10"/><rect x="196" y="142" width="10" height="10"/><rect x="236" y="142" width="10" height="10"/><rect x="196" y="152" width="10" height="10"/><rect x="236" y="152" width="10" height="10"/><rect x="196" y="162" width="10" height="10"/><rect x="236" y="162" width="10" height="10"/><rect x="196" y="172" width="10" height="10"/><rect x="236" y="172" width="10" height="10"/><rect x="206" y="182" width="10" height="10"/><rect x="216" y="182" width="10" height="10"/><rect x="226" y="182" width="10" height="10"/><rect x="261" y="122" width="10" height="10"/><rect x="271" y="122" width="10" height="10"/><rect x="281" y="122" width="10" height="10"/><rect x="291" y="122" width="10" height="10"/><rect x="261" y="132" width="10" height="10"/><rect x="301" y="132" width="10" height="10"/><rect x="261" y="142" width="10" height="10"/><rect x="301" y="142" width="10" height="10"/><rect x="261" y="152" width="10" height="10"/><rect x="271" y="152" width="10" height="10"/><rect x="281" y="152" width="10" height="10"/><rect x="291" y="152" width="10" height="10"/><rect x="261" y="162" width="10" height="10"/><rect x="281" y="162" width="10" height="10"/><rect x="261" y="172" width="10" height="10"/><rect x="291" y="172" width="10" height="10"/><rect x="261" y="182" width="10" height="10"/><rect x="301" y="182" width="10" height="10"/><rect x="326" y="122" width="10" height="10"/><rect x="336" y="122" width="10" height="10"/><rect x="346" y="122" width="10" height="10"/><rect x="356" y="122" width="10" height="10"/><rect x="366" y="122" width="10" height="10"/><rect x="326" y="132" width="10" height="10"/><rect x="326" y="142" width="10" height="10"/><rect x="326" y="152" width="10" height="10"/><rect x="336" y="152" width="10" height="10"/><rect x="346" y="152" width="10" height="10"/><rect x="356" y="152" width="10" height="10"/><rect x="366" y="152" width="10" height="10"/><rect x="366" y="162" width="10" height="10"/><rect x="366" y="172" width="10" height="10"/><rect x="326" y="182" width="10" height="10"/><rect x="336" y="182" width="10" height="10"/><rect x="346" y="182" width="10" height="10"/><rect x="356" y="182" width="10" height="10"/><rect x="366" y="182" width="10" height="10"/><rect x="391" y="122" width="10" height="10"/><rect x="401" y="122" width="10" height="10"/><rect x="411" y="122" width="10" height="10"/><rect x="421" y="122" width="10" height="10"/><rect x="431" y="122" width="10" height="10"/><rect x="411" y="132" width="10" height="10"/><rect x="411" y="142" width="10" height="10"/><rect x="411" y="152" width="10" height="10"/><rect x="411" y="162" width="10" height="10"/><rect x="411" y="172" width="10" height="10"/><rect x="391" y="182" width="10" height="10"/><rect x="401" y="182" width="10" height="10"/><rect x="411" y="182" width="10" height="10"/><rect x="421" y="182" width="10" height="10"/><rect x="431" y="182" width="10" height="10"/><rect x="456" y="122" width="10" height="10"/><rect x="496" y="122" width="10" height="10"/><rect x="456" y="132" width="10" height="10"/><rect x="486" y="132" width="10" height="10"/><rect x="456" y="142" width="10" height="10"/><rect x="476" y="142" width="10" height="10"/><rect x="456" y="152" width="10" height="10"/><rect x="466" y="152" width="10" height="10"/><rect x="456" y="162" width="10" height="10"/><rect x="476" y="162" width="10" height="10"/><rect x="456" y="172" width="10" height="10"/><rect x="486" y="172" width="10" height="10"/><rect x="456" y="182" width="10" height="10"/><rect x="496" y="182" width="10" height="10"/><rect x="521" y="122" width="10" height="10"/><rect x="531" y="122" width="10" height="10"/><rect x="541" y="122" width="10" height="10"/><rect x="551" y="122" width="10" height="10"/><rect x="521" y="132" width="10" height="10"/><rect x="561" y="132" width="10" height="10"/><rect x="521" y="142" width="10" height="10"/><rect x="561" y="142" width="10" height="10"/><rect x="521" y="152" width="10" height="10"/><rect x="561" y="152" width="10" height="10"/><rect x="521" y="162" width="10" height="10"/><rect x="561" y="162" width="10" height="10"/><rect x="521" y="172" width="10" height="10"/><rect x="561" y="172" width="10" height="10"/><rect x="521" y="182" width="10" height="10"/><rect x="531" y="182" width="10" height="10"/><rect x="541" y="182" width="10" height="10"/><rect x="551" y="182" width="10" height="10"/><rect x="596" y="122" width="10" height="10"/><rect x="606" y="122" width="10" height="10"/><rect x="616" y="122" width="10" height="10"/><rect x="586" y="132" width="10" height="10"/><rect x="626" y="132" width="10" height="10"/><rect x="586" y="142" width="10" height="10"/><rect x="626" y="142" width="10" height="10"/><rect x="586" y="152" width="10" height="10"/><rect x="596" y="152" width="10" height="10"/><rect x="606" y="152" width="10" height="10"/><rect x="616" y="152" width="10" height="10"/><rect x="626" y="152" width="10" height="10"/><rect x="586" y="162" width="10" height="10"/><rect x="626" y="162" width="10" height="10"/><rect x="586" y="172" width="10" height="10"/><rect x="626" y="172" width="10" height="10"/><rect x="586" y="182" width="10" height="10"/><rect x="626" y="182" width="10" height="10"/></g>
<g shape-rendering="crispEdges" fill="#243346"><rect x="66" y="122" width="10" height="10"/><rect x="76" y="122" width="10" height="10"/><rect x="86" y="122" width="10" height="10"/><rect x="96" y="122" width="10" height="10"/><rect x="106" y="122" width="10" height="10"/><rect x="66" y="132" width="10" height="10"/><rect x="66" y="142" width="10" height="10"/><rect x="66" y="152" width="10" height="10"/><rect x="76" y="152" width="10" height="10"/><rect x="86" y="152" width="10" height="10"/><rect x="96" y="152" width="10" height="10"/><rect x="106" y="152" width="10" height="10"/><rect x="106" y="162" width="10" height="10"/><rect x="106" y="172" width="10" height="10"/><rect x="66" y="182" width="10" height="10"/><rect x="76" y="182" width="10" height="10"/><rect x="86" y="182" width="10" height="10"/><rect x="96" y="182" width="10" height="10"/><rect x="106" y="182" width="10" height="10"/><rect x="131" y="122" width="10" height="10"/><rect x="171" y="122" width="10" height="10"/><rect x="131" y="132" width="10" height="10"/><rect x="141" y="132" width="10" height="10"/><rect x="161" y="132" width="10" height="10"/><rect x="171" y="132" width="10" height="10"/><rect x="131" y="142" width="10" height="10"/><rect x="151" y="142" width="10" height="10"/><rect x="171" y="142" width="10" height="10"/><rect x="131" y="152" width="10" height="10"/><rect x="151" y="152" width="10" height="10"/><rect x="171" y="152" width="10" height="10"/><rect x="131" y="162" width="10" height="10"/><rect x="171" y="162" width="10" height="10"/><rect x="131" y="172" width="10" height="10"/><rect x="171" y="172" width="10" height="10"/><rect x="131" y="182" width="10" height="10"/><rect x="171" y="182" width="10" height="10"/><rect x="206" y="122" width="10" height="10"/><rect x="216" y="122" width="10" height="10"/><rect x="226" y="122" width="10" height="10"/><rect x="196" y="132" width="10" height="10"/><rect x="236" y="132" width="10" height="10"/><rect x="196" y="142" width="10" height="10"/><rect x="236" y="142" width="10" height="10"/><rect x="196" y="152" width="10" height="10"/><rect x="236" y="152" width="10" height="10"/><rect x="196" y="162" width="10" height="10"/><rect x="236" y="162" width="10" height="10"/><rect x="196" y="172" width="10" height="10"/><rect x="236" y="172" width="10" height="10"/><rect x="206" y="182" width="10" height="10"/><rect x="216" y="182" width="10" height="10"/><rect x="226" y="182" width="10" height="10"/><rect x="261" y="122" width="10" height="10"/><rect x="271" y="122" width="10" height="10"/><rect x="281" y="122" width="10" height="10"/><rect x="291" y="122" width="10" height="10"/><rect x="261" y="132" width="10" height="10"/><rect x="301" y="132" width="10" height="10"/><rect x="261" y="142" width="10" height="10"/><rect x="301" y="142" width="10" height="10"/><rect x="261" y="152" width="10" height="10"/><rect x="271" y="152" width="10" height="10"/><rect x="281" y="152" width="10" height="10"/><rect x="291" y="152" width="10" height="10"/><rect x="261" y="162" width="10" height="10"/><rect x="281" y="162" width="10" height="10"/><rect x="261" y="172" width="10" height="10"/><rect x="291" y="172" width="10" height="10"/><rect x="261" y="182" width="10" height="10"/><rect x="301" y="182" width="10" height="10"/><rect x="326" y="122" width="10" height="10"/><rect x="336" y="122" width="10" height="10"/><rect x="346" y="122" width="10" height="10"/><rect x="356" y="122" width="10" height="10"/><rect x="366" y="122" width="10" height="10"/><rect x="326" y="132" width="10" height="10"/><rect x="326" y="142" width="10" height="10"/><rect x="326" y="152" width="10" height="10"/><rect x="336" y="152" width="10" height="10"/><rect x="346" y="152" width="10" height="10"/><rect x="356" y="152" width="10" height="10"/><rect x="366" y="152" width="10" height="10"/><rect x="366" y="162" width="10" height="10"/><rect x="366" y="172" width="10" height="10"/><rect x="326" y="182" width="10" height="10"/><rect x="336" y="182" width="10" height="10"/><rect x="346" y="182" width="10" height="10"/><rect x="356" y="182" width="10" height="10"/><rect x="366" y="182" width="10" height="10"/><rect x="391" y="122" width="10" height="10"/><rect x="401" y="122" width="10" height="10"/><rect x="411" y="122" width="10" height="10"/><rect x="421" y="122" width="10" height="10"/><rect x="431" y="122" width="10" height="10"/><rect x="411" y="132" width="10" height="10"/><rect x="411" y="142" width="10" height="10"/><rect x="411" y="152" width="10" height="10"/><rect x="411" y="162" width="10" height="10"/><rect x="411" y="172" width="10" height="10"/><rect x="391" y="182" width="10" height="10"/><rect x="401" y="182" width="10" height="10"/><rect x="411" y="182" width="10" height="10"/><rect x="421" y="182" width="10" height="10"/><rect x="431" y="182" width="10" height="10"/><rect x="456" y="122" width="10" height="10"/><rect x="496" y="122" width="10" height="10"/><rect x="456" y="132" width="10" height="10"/><rect x="486" y="132" width="10" height="10"/><rect x="456" y="142" width="10" height="10"/><rect x="476" y="142" width="10" height="10"/><rect x="456" y="152" width="10" height="10"/><rect x="466" y="152" width="10" height="10"/><rect x="456" y="162" width="10" height="10"/><rect x="476" y="162" width="10" height="10"/><rect x="456" y="172" width="10" height="10"/><rect x="486" y="172" width="10" height="10"/><rect x="456" y="182" width="10" height="10"/><rect x="496" y="182" width="10" height="10"/><rect x="521" y="122" width="10" height="10"/><rect x="531" y="122" width="10" height="10"/><rect x="541" y="122" width="10" height="10"/><rect x="551" y="122" width="10" height="10"/><rect x="521" y="132" width="10" height="10"/><rect x="561" y="132" width="10" height="10"/><rect x="521" y="142" width="10" height="10"/><rect x="561" y="142" width="10" height="10"/><rect x="521" y="152" width="10" height="10"/><rect x="561" y="152" width="10" height="10"/><rect x="521" y="162" width="10" height="10"/><rect x="561" y="162" width="10" height="10"/><rect x="521" y="172" width="10" height="10"/><rect x="561" y="172" width="10" height="10"/><rect x="521" y="182" width="10" height="10"/><rect x="531" y="182" width="10" height="10"/><rect x="541" y="182" width="10" height="10"/><rect x="551" y="182" width="10" height="10"/><rect x="596" y="122" width="10" height="10"/><rect x="606" y="122" width="10" height="10"/><rect x="616" y="122" width="10" height="10"/><rect x="586" y="132" width="10" height="10"/><rect x="626" y="132" width="10" height="10"/><rect x="586" y="142" width="10" height="10"/><rect x="626" y="142" width="10" height="10"/><rect x="586" y="152" width="10" height="10"/><rect x="596" y="152" width="10" height="10"/><rect x="606" y="152" width="10" height="10"/><rect x="616" y="152" width="10" height="10"/><rect x="626" y="152" width="10" height="10"/><rect x="586" y="162" width="10" height="10"/><rect x="626" y="162" width="10" height="10"/><rect x="586" y="172" width="10" height="10"/><rect x="626" y="172" width="10" height="10"/><rect x="586" y="182" width="10" height="10"/><rect x="626" y="182" width="10" height="10"/></g>
<text x="66" y="231" font-size="20" fill="#243346">Aprendiendo a hacer que las cosas funcionen.</text>
<text x="66" y="263" font-size="17" fill="#587177">Código, nuevos retos y unas cuantas pestañas abiertas.</text>
<path d="M66 290h685" stroke="#b9c4be" stroke-width="2"/>
<rect x="66" y="307" width="9" height="9" fill="#426f6a"/>
<text x="86" y="317" font-size="14" fill="#243346">BACKEND EN CONSTRUCCIÓN</text>
<text x="385" y="317" font-size="14" fill="#587177">[ guardar y volver a intentar ]</text>
<!-- Monitor CRT, dibujado sobre una retícula de píxeles. -->
<g shape-rendering="crispEdges">
<path d="M865 104h222v156H865z" fill="#8c9a97"/>
<path d="M856 94h222v156H856z" fill="#d7d8c9" stroke="#243346" stroke-width="3"/>
<path d="M860 245V98h213" fill="none" stroke="#fffdf1" stroke-width="4"/>
<path d="M1074 100v145H862" fill="none" stroke="#8c9a97" stroke-width="4"/>
<path d="M875 112h183v108H875z" fill="#243346"/>
<path d="M879 116h175v100H879z" fill="#142f3b"/>
<path d="M884 121h165v3H884zM884 210h165v2H884z" fill="#284450"/>
<path d="M935 252h62v21h-62zM911 273h110v10H911zM893 283h146v10H893z" fill="#a9b5af" stroke="#243346" stroke-width="3"/>
<rect x="1044" y="233" width="9" height="5" fill="#8aa997"/>
<path d="M875 233h28m5 0h14" stroke="#87928e" stroke-width="3"/>
</g>
<text x="966" y="158" text-anchor="middle" font-size="25" font-weight="bold" fill="#b6dfe3">REI &gt;</text>
<text x="966" y="191" text-anchor="middle" font-size="25" font-weight="bold" fill="#b6dfe3">ASUKA</text>
<rect x="1006" y="193" width="11" height="3" fill="#d9776c"/>
<rect x="936" y="302" width="130" height="24" fill="#bc6158" transform="rotate(-4 1001 314)"/>
<text x="1001" y="319" text-anchor="middle" font-size="13" font-weight="bold" fill="#fff4df" transform="rotate(-4 1001 314)">TEAM REI / 00</text>
<path d="M28 357h1136" stroke="#8c9a97" stroke-width="2"/>
<path d="M28 359h1136" stroke="#fffef3" stroke-width="2"/>
<text x="42" y="382" font-size="14" fill="#324766">Listo.</text>
<path d="M934 363v24m133-24v24" stroke="#9ca79f"/>
<text x="952" y="382" font-size="13" fill="#324766">smorsikda</text>
<text x="1084" y="382" font-size="13" fill="#324766">[ ONLINE ]</text>
</g>
</svg>